<?xml version="1.0" encoding="UTF-8" standalone="no"?>
<!-- Created with Inkscape (http://www.inkscape.org/) -->
<svg
   xmlns:dc="http://purl.org/dc/elements/1.1/"
   xmlns:cc="http://web.resource.org/cc/"
   xmlns:rdf="http://www.w3.org/1999/02/22-rdf-syntax-ns#"
   xmlns:svg="http://www.w3.org/2000/svg"
   xmlns="http://www.w3.org/2000/svg"
   xmlns:sodipodi="http://sodipodi.sourceforge.net/DTD/sodipodi-0.dtd"
   xmlns:inkscape="http://www.inkscape.org/namespaces/inkscape"
   width="610.59753"
   height="469.84967"
   id="svg2"
   sodipodi:version="0.32"
   inkscape:version="0.44+devel"
   version="1.0"
   sodipodi:docbase="C:\Documents and Settings\James\デスクトップ"
   sodipodi:docname="tickets.svg"
   inkscape:output_extension="org.inkscape.output.svg.inkscape">
  <defs
     id="defs4">
    <filter
       inkscape:collect="always"
       x="-0.089182205"
       width="1.1783644"
       y="-0.11953217"
       height="1.2390643"
       id="filter3475">
      <feGaussianBlur
         inkscape:collect="always"
         stdDeviation="23.627689"
         id="feGaussianBlur3477" />
    </filter>
  </defs>
  <sodipodi:namedview
     id="base"
     pagecolor="#ffffff"
     bordercolor="#666666"
     borderopacity="1.0"
     gridtolerance="10000"
     guidetolerance="10"
     objecttolerance="10"
     inkscape:pageopacity="0.0"
     inkscape:pageshadow="2"
     inkscape:zoom="0.48313325"
     inkscape:cx="393.04374"
     inkscape:cy="219.63845"
     inkscape:document-units="px"
     inkscape:current-layer="layer1"
     inkscape:window-width="742"
     inkscape:window-height="602"
     inkscape:window-x="271"
     inkscape:window-y="57"
     showborder="false"
     showguides="true"
     inkscape:guide-bbox="true" />
  <metadata
     id="metadata7">
    <rdf:RDF>
      <cc:Work
         rdf:about="">
        <dc:format>image/svg+xml</dc:format>
        <dc:type
           rdf:resource="http://purl.org/dc/dcmitype/StillImage" />
      </cc:Work>
    </rdf:RDF>
  </metadata>
  <g
     inkscape:label="Layer 1"
     inkscape:groupmode="layer"
     id="layer1"
     transform="translate(605.38256,-213.40309)">
    <path
       sodipodi:type="arc"
       style="opacity:1;fill:#ffd5d5;fill-opacity:1;fill-rule:nonzero;stroke:none;stroke-width:1;stroke-linecap:round;stroke-miterlimit:4;stroke-dasharray:none;stroke-dashoffset:0;stroke-opacity:1;filter:url(#filter3475)"
       id="path2464"
       sodipodi:cx="211.12189"
       sodipodi:cy="-87.497719"
       sodipodi:rx="264.93726"
       sodipodi:ry="197.66803"
       d="M 476.05914,-87.497719 A 264.93726,197.66803 0 1 1 -53.815369,-87.497719 A 264.93726,197.66803 0 1 1 476.05914,-87.497719 z"
       transform="translate(-514.31038,539.96531)" />
    <g
       transform="matrix(0.775952,0.4007306,-0.4601887,0.8878253,192.45418,-51.953485)"
       id="g2456">
      <path
         id="path2458"
         style="fill:#d7eef4;fill-opacity:1;fill-rule:nonzero;stroke:#000000;stroke-width:1;stroke-linecap:round;stroke-miterlimit:4;stroke-dashoffset:0;stroke-opacity:1"
         d="M -36.791586,726.10701 C -43.913154,726.10701 -49.692978,722.00552 -49.692978,716.95189 C -49.692978,711.89827 -43.913154,707.79675 -36.791586,707.79675 C -43.913154,707.79675 -49.692978,703.69526 -49.692978,698.64163 C -49.692978,693.58801 -43.913154,689.4865 -36.791586,689.4865 C -43.913154,689.4865 -49.692978,685.385 -49.692978,680.33138 C -49.692978,675.27775 -43.913154,671.17625 -36.791586,671.17625 C -43.913154,671.17625 -49.692978,667.07476 -49.692978,662.02112 C -49.692978,656.96749 -43.913154,652.866 -36.791586,652.866 C -43.913154,652.866 -49.692978,648.7645 -49.692978,643.71086 C -49.692978,638.65723 -43.913154,634.55574 -36.791586,634.55574 C -43.913154,634.55574 -49.692978,630.45424 -49.692978,625.40061 C -49.692978,620.34698 -43.913154,616.24548 -36.791586,616.24548 C -43.913154,616.24548 -49.692978,612.14398 -49.692978,607.09035 C -49.692978,602.03672 -43.913154,597.93522 -36.791586,597.93522 C -43.913154,597.93522 -49.692978,593.83373 -49.692978,588.7801 C -49.692978,583.72647 -43.913154,579.62497 -36.791586,579.62497 C -43.913154,579.62497 -49.692978,575.52347 -49.692978,570.46984 C -49.692978,565.41621 -43.913154,561.31471 -36.791586,561.31471 C -43.913154,561.31471 -49.692978,557.21321 -49.692978,552.15958 C -49.692978,547.10595 -43.913154,543.00445 -36.657078,543.10199 C -219.64681,563.30971 -346.75262,566.21431 -510.91296,543.14098 C -504.85943,543.64523 -498.85574,545.33267 -497.89321,552.12044 C -497.89321,557.17407 -503.67303,561.27557 -510.7946,561.27557 C -503.67303,561.27557 -497.89321,565.37707 -497.89321,570.4307 C -497.89321,575.48433 -503.67303,579.58583 -510.7946,579.58583 C -503.67303,579.58583 -497.89321,583.68733 -497.89321,588.74096 C -497.89321,593.79459 -503.67303,597.89608 -510.7946,597.89608 C -503.67303,597.89608 -497.89321,601.99758 -497.89321,607.05121 C -497.89321,612.10484 -503.67303,616.20634 -510.7946,616.20634 C -503.67303,616.20634 -497.89321,620.30784 -497.89321,625.36147 C -497.89321,630.4151 -503.67303,634.5166 -510.7946,634.5166 C -503.67303,634.5166 -497.89321,638.61809 -497.89321,643.67172 C -497.89321,648.72536 -503.67303,652.82686 -510.7946,652.82686 C -503.67303,652.82686 -497.89321,656.92835 -497.89321,661.98198 C -497.89321,667.03562 -503.67303,671.13711 -510.7946,671.13711 C -503.67303,671.13711 -497.89321,675.23861 -497.89321,680.29224 C -497.89321,685.34586 -503.67303,689.44736 -510.7946,689.44736 C -503.67303,689.44736 -497.89321,693.54887 -497.89321,698.60249 C -497.89321,703.65612 -503.67303,707.75761 -510.7946,707.75761 C -503.67303,707.75761 -497.89321,711.85913 -497.89321,716.91275 C -497.89321,721.96638 -503.67303,726.06787 -510.7946,726.06787 C -503.67303,726.06787 -497.89321,730.16939 -497.89321,735.22301 C -497.89321,740.27663 -503.67303,744.37813 -510.98802,744.29333 C -359.66417,724.93444 -202.17973,722.42286 -36.836055,744.28463 C -43.913154,744.41727 -49.692978,740.31577 -49.692978,735.26215 C -49.692978,730.20853 -43.913154,726.10701 -36.791586,726.10701 z"
         sodipodi:nodetypes="cscscscscscscscscscsccccscscscscscscscscscsccsc" />
      <path
         id="path2460"
         style="fill:none;fill-opacity:1;fill-rule:nonzero;stroke:#d40000;stroke-width:2.88575745;stroke-linecap:round;stroke-miterlimit:4;stroke-dashoffset:0;stroke-opacity:1"
         d="M -413.66634,564.10028 C -318.3245,577.70064 -225.68537,573.7754 -133.93296,564.10028 C -106.69541,564.10028 -84.7677,586.02799 -84.7677,613.26554 L -84.7677,674.29829 C -84.7677,701.53584 -106.69541,723.46355 -133.93296,723.46355 C -228.09652,712.53714 -321.30831,712.92548 -413.66634,723.46355 C -440.9039,723.46355 -462.8316,701.53584 -462.8316,674.29829 L -462.8316,613.26554 C -462.8316,586.02799 -440.9039,564.10028 -413.66634,564.10028 z M -371.28248,569.20371 L -371.28248,719.26567 M -172.00325,568.20371 L -172.00325,719.26567"
         transform="matrix(1.0807439,0,0,1,20.835734,-9.0622334e-2)"
         sodipodi:nodetypes="ccccccccccccc" />
      <path
         transform="translate(13.991255,39.468573)"
         style="font-size:56px;font-style:normal;font-variant:normal;font-weight:bold;font-stretch:normal;text-align:center;line-height:100%;writing-mode:lr-tb;text-anchor:middle;fill:#000000;fill-opacity:1;stroke:none;stroke-width:1px;stroke-linecap:butt;stroke-linejoin:miter;stroke-opacity:1;font-family:Tuffy"
         d="M -349.43496,569.61247 L -353.90678,580.21146 L -345.64066,580.82005 L -349.43496,569.61247 z M -343.65273,587.05234 L -356.01515,586.37252 L -359.90377,595.91193 L -368.38295,595.79864 L -352.5864,558.33619 L -345.45232,559.21266 L -331.98876,596.61142 L -340.41155,596.37798 L -343.65273,587.05234 z M -304.38035,580.42331 C -304.26857,576.52209 -305.45134,573.43852 -307.92504,571.19361 C -309.44173,569.76332 -311.21888,568.96986 -313.25496,568.82286 L -318.7452,568.38222 L -319.32621,591.51172 L -313.87788,591.69111 C -310.77124,591.77881 -308.32703,590.50594 -306.54495,587.87516 C -305.19884,585.89314 -304.47605,583.41679 -304.38035,580.42331 L -304.38035,580.42331 z M -296.62758,580.64887 C -296.80939,585.83756 -298.72608,589.94156 -302.36529,593.03241 C -305.54102,595.7651 -309.44305,597.10422 -314.07437,597.03085 L -326.86043,596.74757 L -326.11388,561.5152 L -313.17234,562.77164 C -307.92834,563.17435 -303.73639,565.32607 -300.60528,569.17335 C -297.82154,572.44871 -296.49512,576.27619 -296.62758,580.64887 L -296.62758,580.64887 z M -293.41329,597.19566 L -292.34956,563.92008 L -282.48409,564.00815 L -273.68839,587.79459 L -263.26192,563.31407 L -253.56535,562.57654 L -254.56992,596.30419 L -261.7059,596.563 L -260.88336,574.24713 L -270.35253,596.87649 L -277.7195,597.05411 L -285.41635,575.34083 L -286.26034,597.14538 L -293.41329,597.19566 z M -249.11376,596.09331 L -248.15497,562.07463 L -240.92584,561.32593 L -241.81092,595.80724 L -249.11376,596.09331 z M -234.94587,560.65832 L -202.60844,557.12101 L -202.62486,563.58307 L -214.94137,564.68054 L -215.43071,595.02768 L -222.75393,595.17321 L -222.16864,565.4148 L -235.02083,566.77147 L -234.94587,560.65832 z M -312.00952,626.10995 C -311.88085,621.43311 -313.05832,618.20892 -315.55487,616.35873 C -316.93113,615.37226 -318.63996,614.90242 -320.68,614.95761 C -324.79779,615.06902 -327.59863,617.24879 -329.07269,621.55732 C -329.62543,623.22963 -329.92549,625.08526 -329.95956,627.12521 C -330.04653,632.33109 -328.89328,636.08735 -326.52739,638.30201 C -325.10791,639.65905 -323.33198,640.23662 -321.19796,640.05536 C -317.18711,639.71468 -314.45122,637.11806 -312.97571,632.34831 C -312.38601,630.4578 -312.06417,628.37725 -312.00952,626.10995 L -312.00952,626.10995 z M -337.59375,627.6545 C -337.51498,622.79134 -336.12361,618.66622 -333.41949,615.28386 C -330.27905,611.46864 -325.97096,609.56381 -320.50341,609.49843 C -314.18267,609.42284 -309.61752,611.61639 -306.81509,616.07855 C -305.05873,618.87512 -304.24956,622.09524 -304.34839,625.77394 C -304.47988,630.66883 -305.86627,635.02784 -308.54049,638.83253 C -311.60501,643.36704 -315.83409,645.90358 -321.23443,646.43568 C -327.29292,647.03264 -331.81398,644.70852 -334.79738,639.41508 C -336.71667,636.02759 -337.65098,632.09307 -337.59375,627.6545 L -337.59375,627.6545 z M -299.31539,643.99904 L -298.41498,609.93458 L -291.33066,609.82553 L -276.44382,630.56441 L -275.70129,609.55778 L -268.38255,609.42701 L -269.3005,643.35049 L -276.53057,643.32243 L -291.53099,620.38778 L -292.04036,643.66058 L -299.31539,643.99904 z M -261.88483,609.31596 L -233.64838,609.09496 L -233.8053,614.6827 L -254.75701,614.51115 L -255.01697,622.45404 L -235.18842,622.9839 L -235.29613,628.85958 L -255.16295,628.07269 L -255.32853,637.56636 L -234.21213,638.84884 L -234.23134,645.27764 L -262.76651,643.48146 L -261.88483,609.31596 z"
         id="path2462"
         sodipodi:nodetypes="cccccccccccccccccccccccccccccccccccccccccccccccccccccccccccccscscscccccssscsccccccccccccccccccccccccccc" />
    </g>
    <g
       id="g2451"
       transform="matrix(0.983656,-0.1800577,0.1800577,0.983656,-130.72715,-198.15961)">
      <path
         sodipodi:nodetypes="cscscscscscscscscscsccccscscscscscscscscscsccsc"
         d="M -36.791586,726.10701 C -43.913154,726.10701 -49.692978,722.00552 -49.692978,716.95189 C -49.692978,711.89827 -43.913154,707.79675 -36.791586,707.79675 C -43.913154,707.79675 -49.692978,703.69526 -49.692978,698.64163 C -49.692978,693.58801 -43.913154,689.4865 -36.791586,689.4865 C -43.913154,689.4865 -49.692978,685.385 -49.692978,680.33138 C -49.692978,675.27775 -43.913154,671.17625 -36.791586,671.17625 C -43.913154,671.17625 -49.692978,667.07476 -49.692978,662.02112 C -49.692978,656.96749 -43.913154,652.866 -36.791586,652.866 C -43.913154,652.866 -49.692978,648.7645 -49.692978,643.71086 C -49.692978,638.65723 -43.913154,634.55574 -36.791586,634.55574 C -43.913154,634.55574 -49.692978,630.45424 -49.692978,625.40061 C -49.692978,620.34698 -43.913154,616.24548 -36.791586,616.24548 C -43.913154,616.24548 -49.692978,612.14398 -49.692978,607.09035 C -49.692978,602.03672 -43.913154,597.93522 -36.791586,597.93522 C -43.913154,597.93522 -49.692978,593.83373 -49.692978,588.7801 C -49.692978,583.72647 -43.913154,579.62497 -36.791586,579.62497 C -43.913154,579.62497 -49.692978,575.52347 -49.692978,570.46984 C -49.692978,565.41621 -43.913154,561.31471 -36.791586,561.31471 C -43.913154,561.31471 -49.692978,557.21321 -49.692978,552.15958 C -49.692978,547.10595 -43.913154,543.00445 -36.657078,543.10199 C -219.64681,563.30971 -346.75262,566.21431 -510.91296,543.14098 C -504.85943,543.64523 -498.85574,545.33267 -497.89321,552.12044 C -497.89321,557.17407 -503.67303,561.27557 -510.7946,561.27557 C -503.67303,561.27557 -497.89321,565.37707 -497.89321,570.4307 C -497.89321,575.48433 -503.67303,579.58583 -510.7946,579.58583 C -503.67303,579.58583 -497.89321,583.68733 -497.89321,588.74096 C -497.89321,593.79459 -503.67303,597.89608 -510.7946,597.89608 C -503.67303,597.89608 -497.89321,601.99758 -497.89321,607.05121 C -497.89321,612.10484 -503.67303,616.20634 -510.7946,616.20634 C -503.67303,616.20634 -497.89321,620.30784 -497.89321,625.36147 C -497.89321,630.4151 -503.67303,634.5166 -510.7946,634.5166 C -503.67303,634.5166 -497.89321,638.61809 -497.89321,643.67172 C -497.89321,648.72536 -503.67303,652.82686 -510.7946,652.82686 C -503.67303,652.82686 -497.89321,656.92835 -497.89321,661.98198 C -497.89321,667.03562 -503.67303,671.13711 -510.7946,671.13711 C -503.67303,671.13711 -497.89321,675.23861 -497.89321,680.29224 C -497.89321,685.34586 -503.67303,689.44736 -510.7946,689.44736 C -503.67303,689.44736 -497.89321,693.54887 -497.89321,698.60249 C -497.89321,703.65612 -503.67303,707.75761 -510.7946,707.75761 C -503.67303,707.75761 -497.89321,711.85913 -497.89321,716.91275 C -497.89321,721.96638 -503.67303,726.06787 -510.7946,726.06787 C -503.67303,726.06787 -497.89321,730.16939 -497.89321,735.22301 C -497.89321,740.27663 -503.67303,744.37813 -510.98802,744.29333 C -359.66417,724.93444 -202.17973,722.42286 -36.836055,744.28463 C -43.913154,744.41727 -49.692978,740.31577 -49.692978,735.26215 C -49.692978,730.20853 -43.913154,726.10701 -36.791586,726.10701 z"
         style="fill:#d7eef4;fill-opacity:1;fill-rule:nonzero;stroke:#000000;stroke-width:1;stroke-linecap:round;stroke-miterlimit:4;stroke-dashoffset:0;stroke-opacity:1"
         id="path2426" />
      <path
         sodipodi:nodetypes="ccccccccccccc"
         transform="matrix(1.0807439,0,0,1,20.835734,-9.0622334e-2)"
         d="M -413.66634,564.10028 C -318.3245,577.70064 -225.68537,573.7754 -133.93296,564.10028 C -106.69541,564.10028 -84.7677,586.02799 -84.7677,613.26554 L -84.7677,674.29829 C -84.7677,701.53584 -106.69541,723.46355 -133.93296,723.46355 C -228.09652,712.53714 -321.30831,712.92548 -413.66634,723.46355 C -440.9039,723.46355 -462.8316,701.53584 -462.8316,674.29829 L -462.8316,613.26554 C -462.8316,586.02799 -440.9039,564.10028 -413.66634,564.10028 z M -371.28248,569.20371 L -371.28248,719.26567 M -172.00325,568.20371 L -172.00325,719.26567"
         style="fill:none;fill-opacity:1;fill-rule:nonzero;stroke:#d40000;stroke-width:2.88575745;stroke-linecap:round;stroke-miterlimit:4;stroke-dashoffset:0;stroke-opacity:1"
         id="rect7041" />
      <path
         sodipodi:nodetypes="cccccccccccccccccccccccccccccccccccccccccccccccccccccccccccccscscscccccssscsccccccccccccccccccccccccccc"
         id="text7051"
         d="M -349.43496,569.61247 L -353.90678,580.21146 L -345.64066,580.82005 L -349.43496,569.61247 z M -343.65273,587.05234 L -356.01515,586.37252 L -359.90377,595.91193 L -368.38295,595.79864 L -352.5864,558.33619 L -345.45232,559.21266 L -331.98876,596.61142 L -340.41155,596.37798 L -343.65273,587.05234 z M -304.38035,580.42331 C -304.26857,576.52209 -305.45134,573.43852 -307.92504,571.19361 C -309.44173,569.76332 -311.21888,568.96986 -313.25496,568.82286 L -318.7452,568.38222 L -319.32621,591.51172 L -313.87788,591.69111 C -310.77124,591.77881 -308.32703,590.50594 -306.54495,587.87516 C -305.19884,585.89314 -304.47605,583.41679 -304.38035,580.42331 L -304.38035,580.42331 z M -296.62758,580.64887 C -296.80939,585.83756 -298.72608,589.94156 -302.36529,593.03241 C -305.54102,595.7651 -309.44305,597.10422 -314.07437,597.03085 L -326.86043,596.74757 L -326.11388,561.5152 L -313.17234,562.77164 C -307.92834,563.17435 -303.73639,565.32607 -300.60528,569.17335 C -297.82154,572.44871 -296.49512,576.27619 -296.62758,580.64887 L -296.62758,580.64887 z M -293.41329,597.19566 L -292.34956,563.92008 L -282.48409,564.00815 L -273.68839,587.79459 L -263.26192,563.31407 L -253.56535,562.57654 L -254.56992,596.30419 L -261.7059,596.563 L -260.88336,574.24713 L -270.35253,596.87649 L -277.7195,597.05411 L -285.41635,575.34083 L -286.26034,597.14538 L -293.41329,597.19566 z M -249.11376,596.09331 L -248.15497,562.07463 L -240.92584,561.32593 L -241.81092,595.80724 L -249.11376,596.09331 z M -234.94587,560.65832 L -202.60844,557.12101 L -202.62486,563.58307 L -214.94137,564.68054 L -215.43071,595.02768 L -222.75393,595.17321 L -222.16864,565.4148 L -235.02083,566.77147 L -234.94587,560.65832 z M -312.00952,626.10995 C -311.88085,621.43311 -313.05832,618.20892 -315.55487,616.35873 C -316.93113,615.37226 -318.63996,614.90242 -320.68,614.95761 C -324.79779,615.06902 -327.59863,617.24879 -329.07269,621.55732 C -329.62543,623.22963 -329.92549,625.08526 -329.95956,627.12521 C -330.04653,632.33109 -328.89328,636.08735 -326.52739,638.30201 C -325.10791,639.65905 -323.33198,640.23662 -321.19796,640.05536 C -317.18711,639.71468 -314.45122,637.11806 -312.97571,632.34831 C -312.38601,630.4578 -312.06417,628.37725 -312.00952,626.10995 L -312.00952,626.10995 z M -337.59375,627.6545 C -337.51498,622.79134 -336.12361,618.66622 -333.41949,615.28386 C -330.27905,611.46864 -325.97096,609.56381 -320.50341,609.49843 C -314.18267,609.42284 -309.61752,611.61639 -306.81509,616.07855 C -305.05873,618.87512 -304.24956,622.09524 -304.34839,625.77394 C -304.47988,630.66883 -305.86627,635.02784 -308.54049,638.83253 C -311.60501,643.36704 -315.83409,645.90358 -321.23443,646.43568 C -327.29292,647.03264 -331.81398,644.70852 -334.79738,639.41508 C -336.71667,636.02759 -337.65098,632.09307 -337.59375,627.6545 L -337.59375,627.6545 z M -299.31539,643.99904 L -298.41498,609.93458 L -291.33066,609.82553 L -276.44382,630.56441 L -275.70129,609.55778 L -268.38255,609.42701 L -269.3005,643.35049 L -276.53057,643.32243 L -291.53099,620.38778 L -292.04036,643.66058 L -299.31539,643.99904 z M -261.88483,609.31596 L -233.64838,609.09496 L -233.8053,614.6827 L -254.75701,614.51115 L -255.01697,622.45404 L -235.18842,622.9839 L -235.29613,628.85958 L -255.16295,628.07269 L -255.32853,637.56636 L -234.21213,638.84884 L -234.23134,645.27764 L -262.76651,643.48146 L -261.88483,609.31596 z"
         style="font-size:56px;font-style:normal;font-variant:normal;font-weight:bold;font-stretch:normal;text-align:center;line-height:100%;writing-mode:lr-tb;text-anchor:middle;fill:#000000;fill-opacity:1;stroke:none;stroke-width:1px;stroke-linecap:butt;stroke-linejoin:miter;stroke-opacity:1;font-family:Tuffy"
         transform="translate(13.991255,39.468573)" />
    </g>
  </g>
</svg>
