<?xml version="1.0" standalone="no"?>
<!DOCTYPE svg PUBLIC "-//W3C//DTD SVG 20010904//EN"
 "http://www.w3.org/TR/2001/REC-SVG-20010904/DTD/svg10.dtd">
<svg version="1.0" xmlns="http://www.w3.org/2000/svg"
 width="1280.000000pt" height="1117.000000pt" viewBox="0 0 1280.000000 1117.000000"
 preserveAspectRatio="xMidYMid meet">
<metadata>
Created by potrace 1.15, written by Peter Selinger 2001-2017
</metadata>
<g transform="translate(0.000000,1117.000000) scale(0.100000,-0.100000)"
fill="#ffffff" stroke="none">
<path d="M12415 11155 c-55 -8 -356 -46 -670 -84 -788 -98 -1634 -202 -2110
-261 -220 -27 -656 -81 -970 -120 -313 -39 -750 -93 -970 -120 -558 -69 -1204
-149 -1777 -220 -269 -33 -707 -87 -975 -120 -269 -33 -687 -85 -930 -115
-1612 -199 -2084 -258 -2828 -350 -335 -42 -738 -91 -895 -111 -156 -19 -285
-36 -287 -37 -1 -2 31 -271 73 -598 l75 -594 -1 -712 -1 -713 31 0 30 0 2
-3418 3 -3419 30 -49 c19 -30 49 -60 79 -79 l49 -30 6076 -3 c5462 -2 6080 -1
6122 13 56 19 114 73 140 129 18 40 19 152 19 3449 l0 3407 30 0 30 0 0 660 0
660 -5655 0 -5655 0 0 80 c0 44 3 80 6 80 5 0 278 34 2109 260 440 55 928 115
1085 134 296 37 909 113 1748 216 268 33 686 85 930 115 243 30 641 80 885
110 243 30 661 82 930 115 801 99 1442 178 1782 220 176 22 628 78 1005 124
377 47 699 86 715 88 25 2 30 7 29 28 0 14 -36 307 -79 653 -67 532 -81 627
-94 626 -9 -1 -61 -7 -116 -14z"/>
</g>
</svg>
