<?xml version="1.0" standalone="no"?>
<!DOCTYPE svg PUBLIC "-//W3C//DTD SVG 20010904//EN"
 "http://www.w3.org/TR/2001/REC-SVG-20010904/DTD/svg10.dtd">
<svg version="1.0" xmlns="http://www.w3.org/2000/svg"
 width="1160.000000pt" height="1280.000000pt" viewBox="0 0 1160.000000 1280.000000"
 preserveAspectRatio="xMidYMid meet">
<metadata>
Created by potrace 1.15, written by Peter Selinger 2001-2017
</metadata>
<g transform="translate(0.000000,1280.000000) scale(0.100000,-0.100000)"
fill="#ffffff" stroke="none">
<path d="M1670 12645 c0 -36 13 -359 30 -718 32 -717 79 -1751 82 -1836 l2
-55 -500 -241 c-274 -132 -537 -263 -584 -290 -490 -282 -759 -597 -689 -806
26 -78 100 -144 201 -180 123 -45 166 -150 205 -502 14 -127 17 -252 17 -757
-1 -333 -6 -843 -13 -1134 -6 -291 -9 -531 -7 -534 3 -2 129 7 281 22 302 30
347 29 510 -9 349 -82 855 -358 1690 -923 542 -367 915 -650 915 -695 0 -55
-477 -401 -1256 -910 -592 -386 -961 -692 -989 -818 -9 -42 18 -70 77 -76 37
-4 56 1 117 31 176 89 594 353 1321 833 606 399 699 458 845 534 247 129 390
142 570 52 287 -144 685 -449 685 -526 0 -71 -593 -537 -1490 -1168 -129 -91
-620 -431 -1090 -754 -1277 -879 -1530 -1057 -1530 -1075 0 -23 54 -42 133
-47 81 -5 86 -4 183 37 329 140 1132 618 2299 1366 628 404 1054 662 1487 904
203 114 563 292 643 318 114 38 108 38 208 -25 172 -107 731 -469 1372 -888
837 -547 998 -651 1255 -813 649 -409 1238 -746 1452 -831 154 -62 157 -33 8
111 -286 277 -849 696 -2235 1663 -1109 774 -1529 1072 -1547 1099 -16 23 -7
64 23 109 39 59 160 172 258 241 120 84 692 428 705 423 6 -3 290 -184 631
-402 1021 -655 1283 -813 1649 -996 197 -98 322 -146 351 -135 23 8 55 68 55
102 0 19 -8 38 -22 51 -30 27 -543 373 -1558 1052 -454 304 -825 556 -825 561
0 8 941 627 1464 963 595 382 986 591 1231 660 190 53 291 52 600 -8 129 -24
240 -45 246 -45 7 0 10 319 10 1068 -1 1089 2 1186 40 1478 17 134 56 275 90
326 14 22 44 48 72 62 55 28 111 86 142 145 48 95 63 229 35 312 -23 65 -105
169 -193 242 -188 157 -405 278 -1082 602 -250 120 -459 222 -464 226 -9 8 -6
47 79 1104 95 1175 125 1546 125 1555 0 7 -1459 10 -4160 10 l-4160 0 0 -65z
m7629 -2492 c-115 -563 -182 -998 -332 -2168 l-32 -250 -3148 -3 c-1731 -1
-3147 2 -3147 6 0 4 -23 183 -50 397 -131 1012 -199 1453 -300 1954 -28 134
-50 246 -50 248 0 1 1597 3 3549 3 l3548 0 -38 -187z m-7382 -1408 c-3 -431
-7 -549 -21 -630 -54 -326 -151 -491 -432 -736 -295 -257 -445 -330 -516 -250
-39 43 -47 85 -58 286 -13 246 -29 378 -86 713 -19 111 -34 224 -34 252 0 136
48 238 163 346 97 92 207 165 642 429 l340 206 3 -43 c2 -24 2 -281 -1 -573z
m8159 325 c169 -58 508 -274 627 -399 87 -91 110 -150 115 -293 3 -78 -1 -156
-13 -235 -20 -141 -201 -1072 -210 -1081 -8 -8 -558 545 -648 653 -220 259
-291 472 -266 800 24 321 81 494 183 556 42 26 135 25 212 -1z m-3876 -3319
c64 -12 104 -39 108 -72 7 -55 -133 -213 -263 -299 -189 -123 -308 -125 -501
-9 -125 76 -274 240 -274 304 0 18 6 37 13 42 21 18 82 33 163 43 102 11 682
4 754 -9z m-2245 -10 c366 -42 590 -116 821 -272 39 -26 193 -143 343 -259
l272 -211 -378 -256 c-208 -140 -437 -296 -510 -345 l-132 -89 -883 587 c-712
472 -1172 781 -1207 811 -19 15 95 33 269 43 209 12 1284 5 1405 -9z m4745
-26 c277 -14 505 -27 507 -29 5 -5 -1524 -1033 -1772 -1191 -130 -82 -144 -89
-201 -93 -112 -8 -281 56 -455 171 -84 55 -579 454 -579 466 0 7 502 360 630
444 238 154 461 230 760 257 141 13 542 4 1110 -25z m-2721 -1085 c130 -44
262 -117 713 -397 216 -134 218 -135 195 -152 -88 -68 -1039 -726 -1078 -746
-25 -13 -33 -9 -175 87 -82 55 -333 229 -557 386 -331 231 -406 287 -395 297
18 17 541 340 654 404 107 61 213 107 304 133 88 25 247 19 339 -12z"/>
<path d="M3122 9168 c-11 -29 -53 -136 -92 -238 -39 -102 -72 -189 -73 -194
-1 -4 13 -9 31 -10 30 -1 34 3 49 44 9 25 22 59 29 77 l12 32 103 -2 102 -2
29 -75 c28 -73 30 -75 64 -75 19 0 34 5 33 10 0 6 -44 116 -98 245 l-97 235
-36 3 c-35 3 -37 2 -56 -50z m91 -108 c19 -52 38 -103 42 -112 6 -16 -1 -18
-75 -18 -74 0 -82 2 -77 18 14 44 72 209 74 208 1 -1 17 -44 36 -96z"/>
<path d="M4150 9185 c0 -32 2 -35 30 -35 28 0 30 3 30 35 0 32 -2 35 -30 35
-28 0 -30 -3 -30 -35z"/>
<path d="M6010 8973 l0 -248 138 5 c172 6 196 18 244 120 28 58 30 185 4 245
-42 99 -97 124 -263 125 l-123 0 0 -247z m290 150 c53 -59 65 -183 25 -267
-25 -53 -64 -69 -165 -70 l-85 -1 -3 188 -2 189 101 -4 c99 -3 101 -4 129 -35z"/>
<path d="M6500 9185 c0 -32 2 -35 30 -35 28 0 30 3 30 35 0 32 -2 35 -30 35
-28 0 -30 -3 -30 -35z"/>
<path d="M5658 9192 c-22 -13 -28 -25 -30 -62 -3 -38 -6 -45 -25 -48 -15 -2
-23 -10 -23 -22 0 -12 8 -20 23 -22 21 -3 22 -7 27 -145 3 -82 10 -147 16
-153 13 -13 78 -25 97 -17 9 3 13 15 10 31 -4 18 -12 26 -32 28 l-26 3 -3 128
-3 127 31 0 c23 0 30 4 30 20 0 15 -7 20 -30 20 -29 0 -29 0 -32 64 l-3 65
-27 -17z"/>
<path d="M7658 9192 c-22 -13 -28 -25 -30 -62 -3 -38 -6 -45 -25 -48 -33 -5
-31 -42 2 -42 l25 0 0 -137 c0 -76 4 -143 8 -149 12 -18 49 -34 80 -34 36 0
40 4 35 35 -4 17 -13 25 -32 27 l-26 3 -3 128 -3 127 31 0 c23 0 30 4 30 20 0
15 -7 20 -30 20 -29 0 -29 0 -32 64 l-3 65 -27 -17z"/>
<path d="M4682 9184 c-17 -12 -22 -25 -22 -60 0 -37 -3 -44 -20 -44 -13 0 -20
-7 -20 -20 0 -13 7 -20 19 -20 17 0 19 -11 23 -141 3 -134 5 -142 27 -160 14
-11 39 -19 62 -19 37 0 39 2 39 30 0 27 -3 30 -29 30 -27 0 -30 4 -36 43 -3
23 -5 80 -3 127 l3 85 33 3 c23 2 32 8 32 22 0 14 -9 20 -32 22 l-33 3 0 58
c0 60 -6 67 -43 41z"/>
<path d="M3510 9079 c-37 -14 -60 -49 -60 -90 0 -56 24 -76 125 -107 76 -24
91 -32 93 -51 6 -37 -25 -61 -78 -61 -36 0 -52 5 -68 23 -12 13 -22 29 -22 35
0 14 -29 16 -50 2 -12 -8 -12 -14 3 -45 21 -44 66 -65 137 -65 87 0 140 42
140 111 0 56 -24 76 -125 107 -78 24 -90 31 -93 52 -5 31 21 50 70 50 36 0 78
-26 78 -48 0 -5 14 -7 30 -4 34 5 33 3 20 36 -21 55 -126 84 -200 55z"/>
<path d="M3839 9067 c-58 -39 -61 -116 -6 -152 14 -9 55 -24 92 -35 98 -28
116 -49 75 -90 -13 -13 -33 -20 -61 -20 -50 0 -77 14 -89 46 -9 24 -34 31 -57
16 -19 -12 11 -69 49 -92 68 -41 193 -18 223 41 36 69 -1 125 -100 153 -33 9
-70 21 -83 26 -57 24 -27 80 44 80 41 0 48 -4 77 -41 8 -10 21 -14 39 -10 26
6 26 7 13 39 -27 62 -149 84 -216 39z"/>
<path d="M4344 9071 c-60 -37 -67 -113 -13 -153 13 -10 55 -27 92 -38 100 -28
118 -49 77 -90 -14 -14 -33 -20 -65 -20 -45 0 -66 13 -91 55 -7 14 -17 16 -37
11 -26 -6 -26 -7 -14 -39 28 -69 134 -99 222 -63 34 15 65 59 65 95 0 57 -29
80 -154 118 -71 22 -89 43 -62 72 14 15 31 21 62 21 41 0 48 -4 77 -41 8 -10
21 -14 39 -10 26 6 26 7 13 39 -25 59 -145 84 -211 43z"/>
<path d="M4901 9071 c-32 -17 -60 -53 -61 -77 0 -7 11 -14 25 -17 21 -3 29 1
40 23 17 32 33 40 84 40 49 0 81 -23 81 -60 0 -30 -4 -32 -143 -55 -21 -3 -52
-19 -69 -34 -25 -23 -31 -35 -31 -71 0 -37 5 -48 33 -73 30 -27 37 -29 96 -25
45 3 72 10 93 25 27 21 29 21 34 4 3 -11 16 -20 33 -23 l29 -4 -3 111 c-6 179
-12 206 -51 232 -43 29 -139 31 -190 4z m169 -209 c0 -63 -68 -109 -134 -91
-33 10 -46 24 -46 55 0 30 18 42 91 58 92 20 89 21 89 -22z"/>
<path d="M5328 9074 c-16 -8 -28 -19 -28 -24 0 -6 -5 -10 -11 -10 -6 0 -8 9
-4 20 5 17 2 20 -24 20 l-31 0 0 -175 0 -175 29 0 29 0 4 130 c3 146 12 165
80 177 30 4 41 1 62 -20 25 -25 26 -30 26 -155 l0 -130 30 -4 30 -5 0 143 c0
82 -5 153 -11 167 -24 52 -121 74 -181 41z"/>
<path d="M6735 9065 c-23 -22 -25 -23 -25 -5 0 16 -7 20 -30 20 l-30 0 2 -177
3 -176 28 -1 27 -2 0 96 c0 121 7 164 33 190 15 17 27 21 52 17 27 -4 34 -1
43 19 10 20 8 25 -8 34 -32 17 -70 11 -95 -15z"/>
<path d="M6949 9069 c-55 -32 -80 -85 -80 -165 0 -116 48 -175 150 -182 71 -5
124 17 152 62 25 40 24 44 -7 52 -21 5 -31 0 -56 -30 -25 -31 -35 -36 -72 -36
-46 0 -80 23 -97 67 -20 53 -19 53 126 53 l135 0 -6 43 c-15 101 -62 149 -153
154 -44 3 -64 -1 -92 -18z m145 -51 c14 -13 28 -35 32 -50 l6 -28 -101 0
c-108 0 -113 3 -87 49 29 52 107 67 150 29z"/>
<path d="M7332 9070 c-65 -40 -94 -129 -73 -225 18 -81 74 -125 158 -125 54 0
95 22 124 66 26 40 24 61 -6 67 -22 4 -28 -1 -40 -29 -16 -38 -41 -54 -88 -54
-66 0 -106 80 -88 176 6 33 18 56 36 71 44 39 117 27 135 -23 9 -24 34 -31 57
-16 19 12 -11 69 -49 92 -44 27 -122 27 -166 0z"/>
<path d="M7868 9069 c-53 -28 -78 -81 -78 -166 0 -118 59 -183 163 -183 111 0
172 75 165 200 -4 77 -21 109 -78 148 -42 28 -119 29 -172 1z m141 -45 c29
-21 51 -72 51 -119 0 -80 -45 -135 -111 -135 -69 0 -108 66 -96 168 9 83 93
129 156 86z"/>
<path d="M8275 9065 c-23 -22 -25 -23 -25 -5 0 16 -7 20 -30 20 l-30 0 2 -177
3 -176 28 -1 27 -2 0 96 c0 121 7 164 33 190 15 17 27 21 52 17 27 -4 34 -1
43 19 10 20 8 25 -8 34 -32 17 -70 11 -95 -15z"/>
<path d="M8459 9067 c-60 -40 -64 -108 -9 -149 14 -10 57 -27 95 -38 39 -11
75 -27 82 -36 43 -58 -87 -105 -141 -51 -13 13 -25 29 -28 37 -3 9 -12 11 -30
7 -25 -7 -26 -10 -17 -36 18 -52 53 -75 123 -79 46 -3 73 1 99 13 37 17 67 65
67 105 0 35 -50 76 -115 94 -33 9 -71 22 -85 29 -55 28 -26 77 45 77 37 0 48
-5 65 -28 25 -34 70 -34 70 -1 0 69 -147 106 -221 56z"/>
<path d="M4152 8903 l3 -176 28 -1 27 -2 0 178 0 178 -30 0 -30 0 2 -177z"/>
<path d="M6500 8903 l0 -178 30 0 30 0 0 178 0 177 -30 0 -30 0 0 -177z"/>
</g>
</svg>
